<svg width="232" height="243" viewBox="0 0 232 243" fill="none" xmlns="http://www.w3.org/2000/svg">
<path d="M109.439 192H79.0395V188.39C79.0395 186.237 79.7995 183.513 81.3195 180.22C82.5861 177.687 83.2194 175.913 83.2194 174.9C83.2194 173.887 82.7128 173.19 81.6995 172.81L81.1295 172.62C80.2428 172.62 79.5461 173.063 79.0395 173.95C78.6595 174.837 78.4061 175.343 78.2795 175.47C75.1128 181.677 70.8695 186.49 65.5496 189.91C60.3563 193.33 54.0863 195.04 46.7397 195.04C37.7464 195.04 29.9565 192.697 23.3698 188.01C16.7832 183.323 11.7166 176.99 8.16995 169.01C4.74997 160.904 3.03998 151.847 3.03998 141.84C3.03998 131.834 4.74997 122.84 8.16995 114.861C11.7166 106.754 16.7832 100.357 23.3698 95.6706C29.9565 90.984 37.7464 88.6407 46.7397 88.6407C60.4196 88.6407 70.9329 95.1006 78.2795 108.021C78.9128 109.161 79.5461 110.047 80.1795 110.681C80.8128 111.314 81.6361 111.377 82.6494 110.871C83.4094 110.491 83.7894 109.984 83.7894 109.351C83.7894 108.464 83.4094 107.324 82.6494 105.931C81.8895 104.537 81.3828 103.587 81.1295 103.081C79.7361 100.294 79.0395 97.5073 79.0395 94.7207V55.2009H109.439V192ZM55.4796 169.2C62.4462 169.2 68.0829 166.54 72.3895 161.22C76.8228 155.9 79.0395 149.44 79.0395 141.84C79.0395 134.24 76.8228 127.78 72.3895 122.46C68.0829 117.141 62.4462 114.481 55.4796 114.481C48.2597 114.481 42.7497 117.077 38.9497 122.27C35.2764 127.464 33.4398 133.987 33.4398 141.84C33.4398 149.694 35.2764 156.217 38.9497 161.41C42.7497 166.604 48.2597 169.2 55.4796 169.2ZM193.079 192L164.959 153.43L156.599 161.79V192H126.199V55.2009H156.599V111.251C156.599 114.544 156.219 117.267 155.459 119.42C154.699 121.447 153.496 123.347 151.849 125.12C150.836 126.387 150.329 127.464 150.329 128.35C150.329 128.984 150.646 129.554 151.279 130.06C151.912 130.44 152.419 130.63 152.799 130.63C153.812 130.63 154.826 129.997 155.839 128.73L190.039 91.6807H226.519L184.719 133.67L229.559 192H193.079Z" fill="black"/>
</svg>
