<svg width="622" height="203" viewBox="0 0 622 203" fill="none" xmlns="http://www.w3.org/2000/svg">
<path d="M97.1701 170H70.1784V166.795C70.1784 164.883 70.8532 162.465 72.2028 159.541C73.3274 157.291 73.8897 155.717 73.8897 154.817C73.8897 153.917 73.4399 153.299 72.5402 152.961L72.0341 152.793C71.2468 152.793 70.6282 153.186 70.1784 153.974C69.841 154.761 69.6161 155.211 69.5036 155.323C66.692 160.834 62.9244 165.108 58.2008 168.144C53.5897 171.181 48.0227 172.699 41.4997 172.699C33.5147 172.699 26.5981 170.619 20.7499 166.457C14.9017 162.296 10.403 156.673 7.25402 149.588C4.21745 142.39 2.69917 134.348 2.69917 125.464C2.69917 116.579 4.21745 108.594 7.25402 101.509C10.403 94.3108 14.9017 88.6313 20.7499 84.4701C26.5981 80.3089 33.5147 78.2283 41.4997 78.2283C53.646 78.2283 62.9806 83.964 69.5036 95.4355C70.0659 96.4477 70.6282 97.2349 71.1906 97.7972C71.7529 98.3596 72.4839 98.4158 73.3836 97.9659C74.0584 97.6285 74.3958 97.1787 74.3958 96.6164C74.3958 95.8291 74.0584 94.8169 73.3836 93.5798C72.7089 92.3427 72.259 91.4992 72.0341 91.0493C70.7969 88.5751 70.1784 86.1008 70.1784 83.6266V48.5374H97.1701V170ZM49.2598 149.756C55.4454 149.756 60.4501 147.394 64.274 142.671C68.2102 137.947 70.1784 132.212 70.1784 125.464C70.1784 118.716 68.2102 112.98 64.274 108.257C60.4501 103.533 55.4454 101.171 49.2598 101.171C42.8493 101.171 37.9571 103.477 34.5831 108.088C31.3216 112.699 29.6909 118.491 29.6909 125.464C29.6909 132.437 31.3216 138.229 34.5831 142.84C37.9571 147.451 42.8493 149.756 49.2598 149.756ZM197.107 122.765C197.107 126.476 196.938 129.625 196.6 132.212H131.989C132.889 137.947 135.194 142.558 138.906 146.045C142.617 149.419 147.228 151.106 152.739 151.106C156.788 151.106 160.162 150.15 162.861 148.238C165.56 146.326 167.472 143.683 168.597 140.309H195.42C193.508 149.531 188.897 157.235 181.586 163.421C174.276 169.606 164.716 172.699 152.908 172.699C142.898 172.699 134.295 170.619 127.097 166.457C119.899 162.296 114.444 156.673 110.733 149.588C107.134 142.39 105.335 134.348 105.335 125.464C105.335 116.242 107.19 108.088 110.902 101.003C114.613 93.8047 120.012 88.2377 127.097 84.3014C134.182 80.2526 142.617 78.2283 152.402 78.2283C160.274 78.2283 167.584 79.859 174.332 83.1205C181.193 86.382 186.703 91.3867 190.865 98.1346C195.026 104.77 197.107 112.98 197.107 122.765ZM152.908 99.1468C141.774 99.1468 135.026 104.77 132.664 116.017H170.621C170.171 110.618 168.372 106.457 165.223 103.533C162.074 100.609 157.969 99.1468 152.908 99.1468ZM239.205 138.285C239.992 141.321 240.385 145.314 240.385 150.262C240.385 152.737 241.285 153.974 243.085 153.974C244.884 153.974 245.784 152.737 245.784 150.262C245.784 145.314 246.177 141.321 246.965 138.285L262.991 80.9274H291.67L261.979 170H224.19L194.5 80.9274H223.178L239.205 138.285ZM355.123 170L330.155 135.754L322.733 143.177V170H295.741V48.5374H322.733V98.3033C322.733 101.227 322.395 103.645 321.72 105.557C321.046 107.357 319.977 109.044 318.515 110.618C317.615 111.743 317.165 112.699 317.165 113.486C317.165 114.048 317.447 114.555 318.009 115.004C318.571 115.342 319.021 115.511 319.359 115.511C320.258 115.511 321.158 114.948 322.058 113.824L352.423 80.9274H384.813L347.7 118.21L387.513 170H355.123ZM392.94 48.5374H419.932V70.1308H392.94V48.5374ZM392.94 80.9274H419.932V170H392.94V80.9274ZM491.805 78.2283C501.702 78.2283 509.518 81.4335 515.254 87.8441C520.99 94.2546 523.857 103.645 523.857 116.017V170H496.866V126.813C496.866 117.141 495.741 110.45 493.492 106.738C491.355 103.027 487.756 101.171 482.695 101.171C478.984 101.171 475.497 102.633 472.236 105.557C469.087 108.481 466.556 112.586 464.644 117.872C462.733 123.158 461.777 129.119 461.777 135.754V170H434.785V80.9274H461.777V85.1449C461.777 88.6313 461.046 91.8366 459.584 94.7607C458.346 97.2349 457.728 98.9781 457.728 99.9903C457.728 100.89 458.065 101.452 458.74 101.677C458.965 101.79 459.246 101.846 459.584 101.846C460.596 101.846 461.495 100.946 462.283 99.1468C464.869 93.636 468.693 88.8 473.754 84.6388C478.815 80.3651 484.832 78.2283 491.805 78.2283ZM558.676 138.96C558.789 142.896 560.139 146.157 562.725 148.744C565.424 151.218 569.754 152.455 575.715 152.455C581.226 152.455 585.218 151.724 587.693 150.262C590.167 148.8 591.404 146.832 591.404 144.358C591.404 141.884 589.604 140.084 586.006 138.96C582.519 137.722 576.615 136.654 568.292 135.754C554.684 134.18 545.687 130.75 541.301 125.464C536.914 120.065 534.721 113.992 534.721 107.244C534.721 102.071 536.296 97.2911 539.445 92.905C542.594 88.5188 547.261 84.9762 553.447 82.277C559.632 79.5779 566.999 78.2283 575.546 78.2283C586.905 78.2283 596.24 80.8712 603.55 86.1571C610.973 91.3305 615.022 99.0344 615.696 109.269H589.042C588.705 102.071 584.037 98.472 575.04 98.472C570.429 98.472 567.055 99.1468 564.918 100.496C562.781 101.846 561.713 103.702 561.713 106.063C561.713 107.863 562.781 109.381 564.918 110.618C567.168 111.855 571.61 112.755 578.245 113.317C591.291 114.555 601.245 117.479 608.105 122.09C614.965 126.588 618.396 133.449 618.396 142.671C618.396 148.407 616.652 153.58 613.166 158.191C609.679 162.69 604.675 166.232 598.152 168.819C591.629 171.406 583.925 172.699 575.04 172.699C561.544 172.699 551.141 169.775 543.831 163.927C536.521 157.966 532.584 149.644 532.022 138.96H558.676Z" fill="black"/>
<rect x="392.943" y="48.6895" width="27.4306" height="21.9445" fill="#22D3EE"/>
</svg>
